<svg width="16" height="15" viewBox="0 0 16 15" fill="none" xmlns="http://www.w3.org/2000/svg">
<path d="M11.1348 2.14334C11.3004 1.97777 11.497 1.84643 11.7133 1.75682C11.9296 1.66721 12.1615 1.62109 12.3956 1.62109C12.6298 1.62109 12.8617 1.66721 13.078 1.75682C13.2943 1.84643 13.4909 1.97777 13.6565 2.14334C13.822 2.30891 13.9534 2.50548 14.043 2.72181C14.1326 2.93814 14.1787 3.17 14.1787 3.40416C14.1787 3.63831 14.1326 3.87017 14.043 4.08651C13.9534 4.30284 13.822 4.4994 13.6565 4.66497L5.14596 13.1755L1.67871 14.1211L2.62432 10.6538L11.1348 2.14334Z" stroke="white" stroke-width="1.67" stroke-linecap="round" stroke-linejoin="round"/>
</svg>
