<svg width="25" height="26" viewBox="0 0 25 26" fill="none" xmlns="http://www.w3.org/2000/svg">
<g clip-path="url(#clip0_9686_21993)">
<path d="M7.72906 2.28673H8.17566V2.73341C8.17566 2.9792 8.37651 3.18009 8.62225 3.18009C8.868 3.18009 9.06885 2.9792 9.06885 2.73341V2.28673H9.51545C10.1015 2.27727 10.1038 1.40282 9.51545 1.39336H9.06885V0.946682C9.06885 0.700889 8.868 0.5 8.62225 0.5C8.37651 0.5 8.17566 0.700889 8.17566 0.946682V1.39336H7.72906C7.14305 1.40282 7.14305 2.27727 7.72906 2.28673Z" fill="#56C09E"/>
<path d="M21.4272 13.0024C21.6729 13.0024 21.8738 12.8015 21.8738 12.5557V12.109H22.3204C22.5661 12.109 22.767 11.9081 22.767 11.6623C22.767 11.4165 22.5661 11.2156 22.3204 11.2156H21.8738V10.7689C21.8738 10.5232 21.6729 10.3223 21.4272 10.3223C21.1814 10.3223 20.9806 10.5232 20.9806 10.7689V11.2156H20.534C20.2883 11.2156 20.0874 11.4165 20.0874 11.6623C20.0874 11.9081 20.2883 12.109 20.534 12.109H20.9806V12.5557C20.9806 12.8015 21.1814 13.0024 21.4272 13.0024Z" fill="#56C09E"/>
<path d="M0.443813 7.64449C1.67491 7.64449 2.6768 8.64421 2.6768 9.8779C2.68625 10.464 3.55818 10.4664 3.56999 9.8779C3.56999 8.64657 4.56952 7.64449 5.80298 7.64449C6.38663 7.63504 6.39136 6.76294 5.80298 6.75113C4.57188 6.75113 3.56999 5.75141 3.56999 4.51772C3.55818 3.93396 2.68861 3.92923 2.6768 4.51772C2.6768 5.74905 1.67727 6.75113 0.443813 6.75113C-0.142198 6.76294 -0.144561 7.63267 0.443813 7.64449Z" fill="#56C09E"/>
<path d="M18.7479 21.9358C17.5168 21.9358 16.5149 20.9361 16.5149 19.7024C16.5055 19.1163 15.6335 19.114 15.6217 19.7024C15.6217 20.9338 14.6222 21.9358 13.3887 21.9358C12.8051 21.9453 12.8004 22.8174 13.3887 22.8292C14.6198 22.8292 15.6217 23.8289 15.6217 25.0626C15.6335 25.6464 16.5031 25.6511 16.5149 25.0626C16.5149 23.8313 17.5144 22.8292 18.7479 22.8292C19.3339 22.8174 19.3363 21.9477 18.7479 21.9358Z" fill="#56C09E"/>
<path d="M7.29423 13.1914C7.1879 13.1229 7.18081 12.9527 7.22807 12.8629C7.29423 12.7329 7.44546 12.7093 7.57778 12.766C7.71956 12.8251 7.8188 12.7448 7.8826 12.8818C7.95113 13.0804 7.89914 13.2505 7.66285 13.3167C7.45255 13.3191 7.40529 13.2647 7.29423 13.1914Z" fill="black"/>
<path d="M10.005 13.7844C10.005 13.8884 9.93883 13.9262 9.86322 13.9309C9.78524 13.9309 9.74743 13.886 9.65764 13.8648C9.57494 13.8411 9.46624 13.9333 9.42135 13.86C9.33392 13.7206 9.37172 13.5835 9.51114 13.5008C9.57966 13.4583 10.005 13.5173 10.005 13.7844Z" fill="black"/>
<path d="M18.7617 13.7515C18.2655 14.0516 17.5708 13.9642 17.2116 13.3568C16.8832 12.799 17.1951 12.2672 17.774 11.9482C17.9583 11.8489 18.1426 11.7828 18.3246 11.7568C18.464 11.7355 18.5467 11.5913 18.5089 11.4542C18.4853 11.3715 18.464 11.2888 18.4427 11.2037C18.4049 11.0619 18.2513 10.9863 18.1166 11.0454C16.7863 11.6291 12.3628 13.2717 7.89451 11.7189C7.76928 11.6764 7.62986 11.7378 7.58733 11.8631C7.58024 11.8867 7.57079 11.9104 7.5637 11.9316C7.50463 12.1065 7.58497 12.298 7.75274 12.3736C7.78582 12.3878 7.8189 12.4043 7.85671 12.4209C8.06701 12.5083 8.24187 12.6288 8.35056 12.7896C8.44981 12.9503 8.48052 13.1464 8.39782 13.3686C8.31984 13.5931 8.1757 13.7255 7.97249 13.7727C7.77873 13.82 7.54716 13.7798 7.3085 13.6711C7.21398 13.6309 7.16909 13.6144 7.07457 13.5695C7.0344 13.6546 7.00368 13.7255 6.97533 13.7916C6.87844 14.1012 6.78629 14.4156 6.69886 14.7346C6.67051 14.8386 6.7154 14.9497 6.80756 15.0064L7.17381 15.2262L7.19272 15.2357C8.67429 15.9754 11.7272 17.098 15.2315 16.207C16.5996 15.8454 18.0268 15.2451 19.1492 14.288C19.2201 14.2289 19.2485 14.132 19.2249 14.0422C19.18 13.8696 19.2981 13.4277 18.7641 13.7491L18.7617 13.7515ZM10.6521 13.8744C10.6214 14.0776 10.5339 14.2052 10.43 14.2856C10.3425 14.3565 10.2386 14.3872 10.1842 14.4038C10.2527 14.555 10.3071 14.6732 10.3614 14.7866C10.4536 14.9757 10.2929 15.1931 10.085 15.1577C10.0164 15.1459 9.94555 15.1317 9.86758 15.1175C9.75652 15.0962 9.662 15.0135 9.62656 14.9048C9.56512 14.7157 9.73525 14.5243 9.56748 14.3565C9.5155 14.3045 9.35718 14.2454 9.27684 14.295C9.10434 14.399 9.28393 14.6401 9.24376 14.8008C9.22013 14.8953 9.12325 14.9544 9.02873 14.9308C8.92948 14.9048 8.84206 14.8812 8.7499 14.8552C8.56795 14.8032 8.46398 14.6117 8.52069 14.4298C8.66247 13.9783 8.76644 13.6498 8.90822 13.1984C8.96729 13.0141 9.16578 12.9077 9.35245 12.9597C9.52022 13.007 9.67145 13.0448 9.89121 13.0921C10.1488 13.1488 10.3331 13.2292 10.463 13.3544C10.6025 13.4773 10.6781 13.664 10.6497 13.8744H10.6521ZM11.0396 14.9544C11.0869 14.4699 11.1247 14.1225 11.1743 13.6404C11.1932 13.4608 11.3586 13.3237 11.5382 13.3379C11.869 13.3662 12.1242 13.3733 12.481 13.3662C12.5921 13.3662 12.6842 13.4537 12.6866 13.5648C12.6866 13.6026 12.6866 13.638 12.6866 13.6735C12.6866 13.7822 12.5991 13.8744 12.4904 13.8767C12.2778 13.8791 12.1195 13.8767 11.8595 13.8696C11.8595 13.9524 11.8525 14.0634 11.8454 14.1556C12.0935 14.1627 12.2494 14.1107 12.455 14.0942C12.5613 14.0847 12.6535 14.1721 12.6559 14.2785C12.6559 14.3139 12.6559 14.347 12.6559 14.3825C12.6582 14.5077 12.5519 14.6094 12.4266 14.5999C12.2282 14.5857 12.0698 14.5267 11.8241 14.5125C11.8241 14.607 11.8217 14.7323 11.8217 14.8244C12.1195 14.8386 12.299 14.841 12.5519 14.8339C12.6606 14.8315 12.7527 14.919 12.7575 15.0277C12.7575 15.0608 12.7575 15.0915 12.7598 15.1222C12.7646 15.2475 12.6629 15.3515 12.5377 15.3538C12.0817 15.3633 11.7674 15.3515 11.3302 15.3113C11.1507 15.2948 11.0183 15.134 11.0349 14.9521L11.0396 14.9544ZM14.0973 15.2782C13.9129 15.3018 13.7026 15.2948 13.4829 15.2357C13.3033 15.186 13.223 14.9757 13.3198 14.815C13.3198 14.815 13.3198 14.8126 13.3222 14.8103C13.3884 14.6992 13.5396 14.6425 13.6625 14.6803C13.8397 14.7346 14.0193 14.7441 14.0902 14.7346C14.1918 14.7252 14.2579 14.6826 14.2461 14.6283C14.239 14.5668 14.1516 14.5645 14.0665 14.5503C13.9295 14.5337 13.8586 14.5196 13.7286 14.4959C13.4025 14.4439 13.1875 14.2809 13.1639 13.9713C13.1332 13.5222 13.5491 13.293 13.9673 13.2362C14.1351 13.2079 14.3099 13.215 14.4706 13.2481C14.6313 13.2811 14.7116 13.4371 14.6573 13.5884C14.6549 13.5955 14.6525 13.6026 14.6502 13.6097C14.6077 13.7278 14.4824 13.7964 14.3619 13.768C14.2249 13.7349 14.0878 13.7302 13.9956 13.7467C13.9129 13.7609 13.7381 13.7373 13.7215 13.9027C13.7334 14.158 14.1847 13.9547 14.3525 13.9547C14.7022 13.9547 14.9219 14.1343 14.9857 14.425C15.0802 14.8906 14.6124 15.212 14.0973 15.2806V15.2782ZM15.8907 14.4321C15.8458 14.1012 15.8884 13.8058 15.7773 13.4229C15.7679 13.3922 15.7348 13.3733 15.7041 13.3828C15.6072 13.4111 15.3567 13.4891 15.274 13.5104C15.1724 13.5364 15.0708 13.4726 15.0472 13.3733L15.0141 13.2339C14.9928 13.1417 15.0519 13.0424 15.1488 13.0188C15.6237 12.9054 15.9215 12.8085 16.3751 12.6336C16.4767 12.5934 16.5925 12.6454 16.6351 12.7447C16.6492 12.7825 16.6658 12.8179 16.68 12.8557C16.7178 12.9526 16.6705 13.0614 16.5736 13.0992C16.4909 13.1299 16.4177 13.1559 16.3184 13.1913C16.2901 13.2008 16.2712 13.2362 16.283 13.2646C16.42 13.6546 16.5098 13.9074 16.6232 14.2383C16.6941 14.4439 16.5831 14.6708 16.3751 14.7346C16.3728 14.7346 16.3704 14.7346 16.368 14.737C16.1365 14.8103 15.9215 14.6685 15.8884 14.4298L15.8907 14.4321Z" fill="#231F20"/>
<path d="M23.3343 8.15972C22.942 8.47642 22.2166 8.27789 21.1911 7.57596C20.175 6.87876 19.2157 7.02529 18.0838 7.61614C17.8239 7.75085 17.6868 8.04628 17.7459 8.33461C17.8286 8.73875 17.916 9.14053 18.0129 9.53758C18.1027 9.911 17.9302 10.301 17.5852 10.4711C15.149 11.6765 12.5214 11.7734 10.5744 11.5914C9.91982 11.5299 9.3409 11.4401 8.87303 11.3479C8.29884 11.2345 8.00819 10.6956 8.22322 10.1521C8.72653 8.87347 9.28182 7.66577 9.88201 6.53371C10.6949 4.99041 11.6684 3.36439 13.1972 2.36468C13.9321 1.88254 14.7946 1.54458 15.8296 1.4335C19.6741 1.01045 22.2875 4.02142 23.4477 6.98039C23.6627 7.5287 23.632 7.92811 23.3343 8.15972Z" fill="#56C09E"/>
<path d="M18.6906 12.5885C18.5489 12.3569 18.2913 12.2907 18.0361 12.4278C17.7856 12.5696 17.7029 12.8201 17.8211 13.0659C17.9463 13.3093 18.2086 13.3944 18.4827 13.2455C18.7568 13.0966 18.8277 12.8296 18.6906 12.5909V12.5885Z" fill="#231F20"/>
<path d="M24.2555 18.5445C22.8212 19.9578 21.2593 20.8252 19.6099 21.3262C19.5934 21.3309 19.5745 21.3286 19.5627 21.3167C19.3382 21.1466 19.0523 21.0426 18.7498 21.0426C18.0126 21.0426 17.41 20.4376 17.41 19.7025C17.41 18.8021 16.5098 18.1025 15.5646 18.457C15.0424 18.6532 14.747 19.1873 14.7304 19.7451C14.7068 20.4612 14.1137 21.0426 13.3907 21.0426C12.8803 21.0426 12.436 21.3309 12.2139 21.754C12.2021 21.7729 12.1832 21.7847 12.1619 21.7823C11.2805 21.702 10.3803 21.5885 9.47525 21.4704C9.39491 21.4586 9.31457 21.4491 9.23423 21.4396C9.22714 21.4373 9.21533 21.4373 9.20588 21.4349C8.7002 21.3687 8.19217 21.3002 7.68886 21.2388C6.5641 21.097 5.45351 20.9741 4.39019 20.9221C3.27487 20.8606 2.17138 20.8559 1.03716 20.4139C1.0348 20.4116 1.03244 20.4116 1.03007 20.4092C-0.0686975 19.8774 -0.314444 18.6485 0.422796 17.7008C0.640187 17.4219 0.881208 17.1926 1.13877 17.0036C1.62554 16.6396 2.17374 16.4032 2.73612 16.1787C3.23943 15.9778 3.76164 15.8029 4.29567 15.6564C4.56032 15.5831 4.83206 15.5477 5.10143 15.5477C5.67563 15.5477 6.2451 15.7084 6.74132 16.018C6.74368 16.018 6.74605 16.018 6.74605 16.0204C7.94879 16.6136 10.0494 17.4313 12.592 17.4313C14.8604 17.4337 17.3084 16.727 19.2295 15.3563C19.8391 14.9214 20.6 14.7394 21.3373 14.8789C23.1402 15.2145 24.6052 15.7344 24.9337 16.7081C25.1298 17.2848 24.9006 17.9064 24.2555 18.5445Z" fill="#56C09E"/>
<path d="M7.68886 21.2386C6.5641 21.0968 5.45351 20.9739 4.39019 20.9219C3.27488 20.8605 2.17138 20.8558 1.03716 20.4138C1.0348 20.4114 1.03244 20.4114 1.03007 20.4091C-0.0686975 19.8773 -0.314444 18.6483 0.422796 17.7006C0.640187 17.4217 0.881208 17.1925 1.13877 17.0034C-0.184482 19.6292 4.81079 20.7943 7.68886 21.2386Z" fill="#188365"/>
<path d="M9.59305 21.4725C9.55288 21.4725 9.51508 21.4725 9.47491 21.4702C9.39457 21.4584 9.31423 21.4489 9.23389 21.4395C9.46309 21.4631 9.59305 21.4725 9.59305 21.4725Z" fill="#188365"/>
<path d="M23.127 15.7173C23.127 15.7173 24.1323 15.7434 24.4022 16.3475C24.6722 16.9517 23.8344 18.2579 21.7339 19.5216C21.7339 19.5216 25.2275 16.8014 23.1301 15.7173H23.127Z" fill="#188365"/>
<path d="M10.5744 11.5914C9.91982 11.53 9.3409 11.4402 8.87303 11.348C8.29884 11.2346 8.00819 10.6957 8.22322 10.1521C8.72653 8.87354 9.28182 7.66584 9.88201 6.53378C10.6949 4.99048 11.6684 3.36446 13.1972 2.36475C9.68352 6.3707 10.3948 10.7501 10.5744 11.5914Z" fill="#188365"/>
</g>
<defs>
<clipPath id="clip0_9686_21993">
<rect width="25" height="25" fill="white" transform="translate(0 0.5)"/>
</clipPath>
</defs>
</svg>
