<svg width="8" height="12" viewBox="0 0 8 12" fill="none" xmlns="http://www.w3.org/2000/svg">
<path d="M0.69006 6.46491L5.99242 11.7672C6.11505 11.8899 6.27876 11.9575 6.45332 11.9575C6.62788 11.9575 6.79159 11.8899 6.91423 11.7672L7.30471 11.3768C7.5588 11.1224 7.5588 10.709 7.30471 10.455L2.85219 6.00245L7.30965 1.545C7.43229 1.42226 7.5 1.25865 7.5 1.08419C7.5 0.90953 7.43229 0.745916 7.30965 0.623086L6.91917 0.232798C6.79644 0.110064 6.63282 0.042449 6.45826 0.042449C6.2837 0.042449 6.11999 0.110064 5.99736 0.232798L0.69006 5.5399C0.567132 5.66302 0.499614 5.82741 0.500002 6.00216C0.499614 6.17759 0.567132 6.34189 0.69006 6.46491Z" fill="#1D2939"/>
</svg>
