<svg width="24" height="23" viewBox="0 0 24 23" fill="none" xmlns="http://www.w3.org/2000/svg">
<path d="M12.9267 11.7997C12.9267 11.2879 12.5118 10.873 12 10.873C11.4881 10.873 11.0732 11.2879 11.0732 11.7997C11.0732 12.3115 11.4881 12.7264 12 12.7264C12.5118 12.7264 12.9267 12.3115 12.9267 11.7997Z" stroke="#101828" stroke-width="1.85342" stroke-linecap="round" stroke-linejoin="round"/>
<path d="M12.9267 5.31271C12.9267 4.8009 12.5118 4.38599 12 4.38599C11.4881 4.38599 11.0732 4.8009 11.0732 5.31271C11.0732 5.82451 11.4881 6.23942 12 6.23942C12.5118 6.23942 12.9267 5.82451 12.9267 5.31271Z" stroke="#101828" stroke-width="1.85342" stroke-linecap="round" stroke-linejoin="round"/>
<path d="M12.9267 18.2867C12.9267 17.7749 12.5118 17.36 12 17.36C11.4881 17.36 11.0732 17.7749 11.0732 18.2867C11.0732 18.7985 11.4881 19.2134 12 19.2134C12.5118 19.2134 12.9267 18.7985 12.9267 18.2867Z" stroke="#101828" stroke-width="1.85342" stroke-linecap="round" stroke-linejoin="round"/>
</svg>
