<svg width="6" height="6" viewBox="0 0 6 6" fill="none" xmlns="http://www.w3.org/2000/svg">
<path fill-rule="evenodd" clip-rule="evenodd" d="M4.27643 0.641113C4.81165 0.641113 5.25822 1.02077 5.36149 1.52547C5.37625 1.59757 5.384 1.67222 5.384 1.74868V4.58406C5.384 5.19575 4.88812 5.69163 4.27643 5.69163H1.44107C1.31996 5.69163 1.20341 5.67218 1.09433 5.63629C0.652467 5.49076 0.333496 5.07467 0.333496 4.58406V1.74868C0.333496 1.13699 0.829373 0.641113 1.44107 0.641113H4.27643ZM3.8272 0.995535H4.27643C4.64348 0.995535 4.94921 1.25812 5.01602 1.60568C4.80288 1.62983 4.55922 1.60745 4.30191 1.49719C4.07392 1.39947 3.92267 1.21842 3.8272 0.995535ZM2.77559 0.995535H3.44877C3.56063 1.33221 3.77488 1.65691 4.16231 1.82295C4.47309 1.95614 4.76824 1.98704 5.02958 1.96109V2.32323C4.67476 2.43556 4.32118 2.48102 4.03826 2.39821C3.89773 2.35708 3.73647 2.24788 3.56294 2.07609C3.39179 1.90665 3.22101 1.68873 3.05975 1.45052C2.95953 1.3025 2.8641 1.1483 2.77559 0.995535ZM2.36856 0.995535H1.89956C1.92094 1.39659 1.82644 1.88647 1.47492 2.38274C1.24203 2.71153 0.966618 2.89236 0.687918 2.97312V3.67971C0.855852 3.57772 1.05355 3.43843 1.28502 3.25037C1.83193 2.80599 2.2627 2.62919 2.58934 2.59684C2.91408 2.56469 3.14494 2.67734 3.24661 2.81971C3.35338 2.96918 3.41372 3.16947 3.43645 3.38071C3.45944 3.59451 3.44545 3.83299 3.39148 4.06966C3.28432 4.54015 3.01216 5.02988 2.5219 5.29388C2.4952 5.30827 2.46826 5.32272 2.44112 5.3372H2.99201C3.20745 5.06368 3.37988 4.79193 3.44172 4.57896C3.5115 4.33853 3.54016 4.08366 3.56692 3.8454L3.56697 3.84535V3.84526C3.57658 3.75972 3.58597 3.67625 3.59692 3.59637C3.61592 3.45797 3.64215 3.31133 3.69846 3.20558C3.72827 3.14962 3.77563 3.08733 3.85183 3.05136C3.93207 3.01348 4.01558 3.01813 4.08881 3.04254C4.29411 3.11099 4.56701 3.12517 5.02958 3.00927V2.69315C4.67285 2.79366 4.28392 2.8394 3.93867 2.73836C3.71591 2.67316 3.50446 2.51692 3.3136 2.32796C3.12035 2.13665 2.93508 1.89853 2.76628 1.64922C2.6219 1.43597 2.48749 1.21137 2.36856 0.995535ZM5.02958 3.3738C4.5889 3.47467 4.272 3.47046 4.00397 3.38753C3.98417 3.43391 3.96569 3.51614 3.94806 3.64457C3.93929 3.70837 3.93118 3.78089 3.92236 3.85931C3.89499 4.10368 3.86118 4.4053 3.78206 4.67776C3.72145 4.8866 3.59032 5.11604 3.43446 5.3372H3.79101C3.8568 5.17364 3.91736 5.01787 3.96494 4.88696C4.01606 4.74625 4.04805 4.64506 4.05837 4.59358C4.07791 4.49581 4.11517 4.39059 4.20258 4.31603C4.29349 4.23841 4.40513 4.22175 4.50973 4.22707C4.61273 4.23234 4.7335 4.26007 4.86973 4.29915C4.91926 4.31332 4.97252 4.32954 5.02958 4.34757V3.3738ZM5.01806 4.71604C4.92556 4.686 4.84413 4.66052 4.772 4.63983C4.64038 4.60204 4.55208 4.5841 4.49174 4.58105C4.45276 4.57905 4.43699 4.58388 4.43247 4.58587C4.4299 4.58889 4.41731 4.60603 4.40593 4.66309C4.38963 4.74452 4.34838 4.86946 4.29805 5.00799C4.26194 5.10741 4.21902 5.21949 4.17254 5.3372H4.27643C4.64738 5.3372 4.95568 5.06904 5.01806 4.71604ZM1.67639 5.3372C1.90849 5.2175 2.14276 5.09549 2.35387 4.98181C2.72752 4.78063 2.95377 4.39542 3.04592 3.99093C3.09169 3.79011 3.10259 3.59106 3.08407 3.41863C3.06524 3.24359 3.01761 3.10886 2.9582 3.02571C2.94917 3.01304 2.85883 2.92634 2.62425 2.94955C2.39156 2.97259 2.02487 3.1059 1.50852 3.52544C1.18529 3.78807 0.914797 3.96798 0.687918 4.08694V4.48664C0.743846 4.43547 0.807 4.39271 0.865364 4.35625C0.924823 4.31908 0.989611 4.28253 1.05328 4.24682L1.06906 4.23796C1.12854 4.20465 1.18757 4.17155 1.24619 4.13647C1.37443 4.05965 1.48974 3.97941 1.5784 3.88607C1.73191 3.72445 1.95348 3.5316 2.16179 3.39993C2.26455 3.33494 2.37553 3.27748 2.48025 3.25112C2.57853 3.22636 2.73089 3.2163 2.83708 3.33769C2.93813 3.45319 2.98 3.62641 2.90641 3.85125C2.8365 4.06483 2.66093 4.33446 2.32156 4.68516C1.9693 5.04915 1.61702 5.2315 1.32002 5.28962C1.28652 5.29618 1.25357 5.30114 1.22128 5.30464C1.29081 5.32582 1.36461 5.3372 1.44107 5.3372H1.67639ZM0.687918 2.59813C0.859631 2.52692 1.0307 2.3967 1.1857 2.17788C1.49175 1.74581 1.56571 1.32684 1.54465 0.995535H1.44107C1.02511 0.995535 0.687918 1.33273 0.687918 1.74868V2.59813ZM4.43211 4.58605C4.43127 4.58645 4.43092 4.58672 4.43096 4.58672C4.431 4.58676 4.43118 4.58667 4.43149 4.58645L4.43171 4.58632L4.43211 4.58605ZM2.35115 3.69951C2.17268 3.8123 1.97335 3.98491 1.83537 4.13018C1.71362 4.25834 1.56589 4.35811 1.42831 4.44052C1.36508 4.47835 1.30168 4.51388 1.24292 4.54684L1.22664 4.55597C1.16224 4.59208 1.1045 4.62473 1.0532 4.6568C0.942575 4.72591 0.896332 4.77243 0.881836 4.80216C0.87768 4.81071 0.877184 4.81558 0.878469 4.82303C0.88029 4.83366 0.887918 4.85816 0.91827 4.89861L0.921221 4.90255L0.92395 4.90663C0.924118 4.90685 0.92811 4.91238 0.940794 4.92014C0.953894 4.92816 0.974171 4.93719 1.00297 4.94428C1.06085 4.95855 1.14511 4.96267 1.25197 4.94176C1.46447 4.9002 1.75459 4.76136 2.06687 4.43866C2.39205 4.10266 2.52431 3.8792 2.56958 3.74102C2.59652 3.65871 2.59098 3.61414 2.58238 3.59137C2.57804 3.59216 2.5729 3.59327 2.56683 3.59482C2.51565 3.60771 2.44178 3.64223 2.35115 3.69951ZM2.60143 3.58968C2.60134 3.58982 2.60028 3.58982 2.59851 3.58946C2.60059 3.58942 2.60152 3.58959 2.60143 3.58968Z" fill="white"/>
</svg>
