<svg width="18" height="22" viewBox="0 0 18 22" fill="none" xmlns="http://www.w3.org/2000/svg">
<path d="M7.05649 19.5563C7.05649 20.6307 7.9258 21.5 9.00023 21.5C10.0747 21.5 10.944 20.6307 10.944 19.5563H7.05649ZM9.00023 4.89535C11.6961 4.89535 13.884 7.08326 13.884 9.77907V16.6163H4.11647V9.77907C4.11647 7.08326 6.3044 4.89535 9.00023 4.89535ZM9.00023 0.5C8.18952 0.5 7.5351 1.15442 7.5351 1.96512V3.10791C4.4681 3.77209 2.16297 6.50698 2.16297 9.77907V15.6395L0.209473 17.593V18.5698H17.791V17.593L15.8375 15.6395V9.77907C15.8375 6.50698 13.5323 3.77209 10.4654 3.10791V1.96512C10.4654 1.15442 9.81093 0.5 9.00023 0.5Z" fill="#222222"/>
</svg>
